<svg width="90" height="90" viewBox="0 0 90 90" fill="none" xmlns="http://www.w3.org/2000/svg">
<path d="M67.7415 22.2583C67.4091 21.9259 67.4091 21.3862 67.7415 21.0538L72.5618 16.2337C72.8943 15.9013 73.434 15.9013 73.7664 16.2337C74.0989 16.567 74.0989 17.1058 73.7664 17.4392L68.9462 22.2583C68.6137 22.5908 68.074 22.5908 67.7415 22.2583Z" fill="white"/>
<path d="M89.1475 45.8526H78.0139C77.5433 45.8526 77.1616 45.4709 77.1616 45.0003C77.1616 44.5297 77.5433 44.1489 78.0139 44.1489H89.1475C89.6181 44.1489 89.9998 44.5297 89.9998 45.0003C89.9998 45.4709 89.6181 45.8526 89.1475 45.8526Z" fill="white"/>
<path d="M44.9988 90.0002C44.5282 90.0002 44.1465 89.6185 44.1465 89.1479V78.0149C44.1465 77.5443 44.5282 77.1626 44.9988 77.1626C45.4694 77.1626 45.8511 77.5443 45.8511 78.0149V89.1479C45.8502 89.6194 45.4694 90.0002 44.9988 90.0002Z" fill="white"/>
<path d="M0.000121745 45.6587C-0.00765009 45.1941 0.357629 44.8081 0.822212 44.7926L11.9549 44.5543C12.4316 44.537 12.8288 44.9144 12.8366 45.3901C12.8452 45.8556 12.4791 46.2407 12.0145 46.2571L0.881797 46.4954C0.405988 46.5118 0.00875712 46.1353 0.000121745 45.6587Z" fill="white"/>
<path d="M44.9988 12.8385C44.5282 12.8385 44.1465 12.4568 44.1465 11.9862V0.852271C44.1465 0.381665 44.5282 0 44.9988 0C45.4694 0 45.8511 0.381665 45.8511 0.852271V11.9853C45.8502 12.4559 45.4694 12.8385 44.9988 12.8385Z" fill="white"/>
<path d="M72.5618 73.7681L67.7415 68.9481C67.4091 68.6156 67.4091 68.0759 67.7415 67.7435C68.074 67.411 68.6137 67.411 68.9462 67.7435L73.7664 72.5635C74.0989 72.896 74.0989 73.4356 73.7664 73.7681C73.434 74.0997 72.8943 74.0997 72.5618 73.7681Z" fill="white"/>
<path d="M16.2303 73.7681C15.8978 73.4356 15.8978 72.896 16.2303 72.5635L21.0506 67.7435C21.383 67.411 21.9227 67.411 22.2552 67.7435C22.5877 68.0759 22.5877 68.6156 22.2552 68.9481L17.4349 73.7681C17.1016 74.0997 16.5619 74.0997 16.2303 73.7681Z" fill="white"/>
<path d="M21.0496 22.2583L16.2293 17.4392C15.8969 17.1058 15.8969 16.567 16.2293 16.2337C16.5618 15.9013 17.1015 15.9013 17.434 16.2337L22.2542 21.0538C22.5867 21.3862 22.5867 21.9259 22.2542 22.2583C21.9226 22.5908 21.3829 22.5908 21.0496 22.2583Z" fill="white"/>
<path d="M61.7045 28.295C52.88 19.471 38.7621 19.1117 29.492 27.1923L30.5377 28.2389C34.6827 24.6597 39.8337 22.8455 44.9985 22.8455C50.6746 22.8455 56.3515 25.0051 60.6726 29.3269C69.3149 37.9688 69.3149 52.0308 60.6726 60.6736C52.0295 69.3163 37.9676 69.3155 29.3245 60.6736C21.088 52.4367 20.7288 39.2943 28.1915 30.5954L27.1432 29.5471C19.1097 38.8176 19.4853 52.8986 28.2925 61.7055C32.8987 66.3105 38.9486 68.6134 44.9985 68.6134C51.0485 68.6134 57.0984 66.3105 61.7045 61.7055C70.9159 52.4937 70.9159 37.506 61.7045 28.295Z" fill="white"/>
</svg>
