<svg width="54" height="56" viewBox="0 0 54 56" fill="none" xmlns="http://www.w3.org/2000/svg">
<path d="M33.2148 0.0431492C32.8298 -0.0748508 32.4058 0.0541533 32.1508 0.369153C31.8948 0.684153 31.8538 1.12116 32.0478 1.47816C34.1238 5.30216 35.2208 9.63815 35.2208 14.0182C35.2208 15.8452 35.0328 17.6292 34.6768 19.3522L36.4328 20.6312C36.9428 18.5082 37.2208 16.2952 37.2208 14.0182C37.2208 10.1382 36.4198 6.28816 34.8898 2.75116C44.6948 6.72816 51.3608 16.4462 51.3608 27.1652C51.3608 41.6822 39.5498 53.4922 25.0338 53.4922C16.1678 53.4922 7.96981 49.0481 3.1108 41.7501C5.0098 42.1451 6.94676 42.3451 8.89376 42.3451C20.7948 42.3451 30.9968 34.9652 35.1848 24.5442L33.5148 23.3282C29.7448 33.2622 20.1328 40.3451 8.89376 40.3451C6.31576 40.3451 3.75581 39.9682 1.28781 39.2252C0.900807 39.1072 0.478757 39.2352 0.224757 39.5512C-0.0312426 39.8652 -0.0722465 40.3032 0.120754 40.6592C5.08675 49.8092 14.6328 55.4922 25.0328 55.4922C40.6528 55.4922 53.3598 42.7852 53.3598 27.1652C53.3608 14.7702 45.0768 3.61815 33.2148 0.0431492Z" fill="white"/>
</svg>
