<svg width="110" height="80" viewBox="0 0 110 80" fill="none" xmlns="http://www.w3.org/2000/svg">
<path d="M61.0655 47.011C61.0655 42.0774 63.5084 36.6357 67.6007 33.7699C67.9823 33.5023 68.3898 33.2449 68.8109 33.0045C71.1584 31.6655 73.8213 30.9586 76.5108 30.9586C84.5226 30.9586 91.2847 37.1378 91.9045 45.0255L92.0024 45.7757L92.7588 45.7494C101.129 45.7528 108.197 53.0101 108.197 61.6004C108.197 70.1924 101.124 77.4523 92.7519 77.4523C89.2372 77.4523 86.2013 76.4753 83.7276 74.3003L83.5015 74.2272H82.6952L82.3961 74.33C80.8678 75.5025 77.6857 77.8788 72.6333 77.8788C68.9235 77.8788 66.3672 76.686 63.2067 73.5611L62.6574 73.0029L62.0953 73.5246C59.3619 76.1031 55.8111 77.4616 51.8288 77.4616C43.3115 77.4616 36.3827 70.6504 36.3827 62.2801C36.3827 59.936 36.9234 57.6659 37.9883 55.5351C38.1783 55.1553 38.3871 54.7764 38.6115 54.4094C41.4411 49.7773 46.326 47.011 51.7721 47.011C53.0975 47.011 54.7556 47.1869 55.6151 47.5131V45.8878C54.7556 45.593 53.0932 45.4401 51.7721 45.4401C45.7647 45.4401 40.3427 48.4902 37.2225 53.5971C36.9749 54.0016 36.7583 54.4196 36.5486 54.8384C35.3745 57.1884 34.7856 59.6913 34.7856 62.2792C34.7856 71.5153 42.4313 79.0309 51.8245 79.0309C55.9555 79.0309 59.673 77.697 62.6247 75.166C65.8523 78.194 68.7146 79.3877 72.6333 79.3877C77.9058 79.3877 81.2924 77.0258 83.0622 75.6826C85.7346 77.8711 89.0731 79.0241 92.7511 79.0241C101.985 79.0241 109.786 71.0454 109.786 61.6012C109.786 52.3848 102.357 44.5642 93.4164 44.192C92.3944 35.8345 85.1037 29.3877 76.5091 29.3877C73.5402 29.3877 70.6031 30.1676 68.015 31.6442C67.55 31.9085 67.1013 32.1922 66.6792 32.4887C62.1674 35.6484 59.4736 41.5702 59.4736 47.0119C59.4736 47.0357 59.4762 47.0119 59.4762 47.0357" fill="white"/>
<path d="M61.4705 19.7984L65.7667 15.5112C66.0641 15.2154 66.0641 14.7355 65.7667 14.4397C65.4701 14.1438 64.99 14.1438 64.6926 14.4397L60.3964 18.7268C60.099 19.0226 60.099 19.5025 60.3964 19.7984C60.6921 20.0942 61.1731 20.0942 61.4705 19.7984Z" fill="white"/>
<path d="M10.6588 39.6308L0.73282 39.8424C0.319056 39.857 -0.0067886 40.2002 0.000107465 40.6138C0.00786554 41.0369 0.362166 41.3723 0.786274 41.3577L10.7123 41.1453C11.126 41.1315 11.4519 40.7884 11.445 40.3747C11.4381 39.9516 11.0838 39.6162 10.6588 39.6308Z" fill="white"/>
<path d="M40.1599 11.4192C40.5797 11.4192 41.0219 11.0795 41.0219 10.6615V0.757667C41.0219 0.338844 40.5797 0 40.1599 0C39.7401 0 39.2979 0.338844 39.2979 0.757667V10.6615C39.2979 11.0795 39.7401 11.4192 40.1599 11.4192Z" fill="white"/>
<path d="M19.8427 60.258C19.5462 59.9622 19.0652 59.9622 18.7687 60.258L14.4716 64.5451C14.1742 64.841 14.1742 65.3209 14.4716 65.6176C14.7681 65.9134 15.2491 65.9134 15.5456 65.6176L19.8427 61.3296C20.1384 61.0337 20.1384 60.5539 19.8427 60.258Z" fill="white"/>
<path d="M18.7676 19.7984C19.0641 20.0942 19.5451 20.0942 19.8416 19.7984C20.1382 19.5025 20.1382 19.0226 19.8416 18.7268L15.5445 14.4397C15.248 14.1438 14.767 14.1438 14.4704 14.4397C14.1739 14.7355 14.1739 15.2154 14.4704 15.5112L18.7676 19.7984Z" fill="white"/>
<path d="M55.0135 25.168C47.1459 17.3187 34.5589 16.9997 26.2939 24.1876L27.2267 25.1181C30.9212 21.9344 35.514 20.3202 40.1197 20.3202C45.1797 20.3202 50.2405 22.2423 54.0937 26.0856C55.4927 27.4823 56.6349 29.038 57.5245 30.6944L58.4434 29.6736C57.5297 28.0611 56.3892 26.5414 55.0135 25.168Z" fill="white"/>
<path d="M26.145 53.9707C18.8016 46.6443 18.4809 34.9533 25.1347 27.215L24.2003 26.2827C17.0379 34.5293 17.3732 47.0545 25.2252 54.8883C27.1639 56.8225 29.3922 58.2948 31.7696 59.3156L32.6859 58.2974C30.3042 57.3367 28.0733 55.8945 26.145 53.9707Z" fill="white"/>
</svg>
