<svg width="101" height="66" viewBox="0 0 101 66" fill="none" xmlns="http://www.w3.org/2000/svg">
<path d="M52.0625 33.5282C52.0625 28.5951 54.5051 23.1529 58.596 20.2874C58.9776 20.02 59.3851 19.7624 59.8079 19.5224C62.1539 18.1827 64.8169 17.4751 67.5068 17.4751C75.5164 17.4751 82.2765 23.655 82.8982 31.5429L82.9958 32.2929L83.7528 32.2664C92.1207 32.2699 99.189 39.5274 99.189 48.1175C99.189 56.7094 92.1154 63.9686 83.7456 63.9686C80.2316 63.9686 77.196 62.9485 74.7228 60.7738L74.4962 60.6578H73.6909L73.3918 60.8039C71.8645 61.9763 68.6837 64.3742 63.6327 64.3742C59.9225 64.3742 57.367 63.192 54.2068 60.0671L53.6587 59.5146L53.0971 60.0388C50.3624 62.6173 46.8126 63.9775 42.831 63.9775C34.3144 63.9775 27.3876 57.1663 27.3876 48.7967C27.3876 46.4528 27.9277 44.1824 28.9928 42.051C29.1827 41.672 29.3914 41.293 29.6153 40.9264C32.4449 36.2944 37.2398 33.5282 42.6859 33.5282C44.0107 33.5282 45.5424 33.7035 46.4381 34.0302V32.4045C45.5424 32.1087 44.0053 31.9564 42.6859 31.9564C36.6782 31.9564 31.302 35.0061 28.183 40.1136C27.9358 40.5182 27.7406 40.9362 27.531 41.355C26.3567 43.7042 25.7798 46.2066 25.7798 48.7949C25.7798 58.0314 33.4302 65.5465 42.8211 65.5465C46.9514 65.5465 50.6723 64.213 53.6228 61.6814C56.8493 64.7098 59.713 65.9043 63.6309 65.9043C68.9023 65.9043 72.29 63.5418 74.0591 62.1985C76.7302 64.3866 80.0686 65.5404 83.7465 65.5404C92.9788 65.5404 100.78 57.5621 100.78 48.1175C100.78 38.9013 93.3523 31.0807 84.4138 30.7088C83.39 22.3506 76.1022 15.9043 67.5094 15.9043C64.5401 15.9043 61.6039 16.6844 59.0161 18.1605C58.5521 18.4253 58.1024 18.7086 57.6806 19.0053C53.1705 22.1647 50.4761 28.0859 50.4761 33.5282C50.4761 33.5521 50.4788 33.5282 50.4788 33.5521" fill="white"/>
<path d="M22.7676 52.0778C14.7039 52.0778 7.24771 47.7938 2.82842 40.7577C4.55557 41.1394 6.31731 41.3322 8.08812 41.3322C18.9113 41.3322 28.1919 34.217 32 24.1722L30.4811 23C27.0531 32.5763 18.3101 39.4042 8.08812 39.4042C5.74341 39.4042 3.41508 39.0408 1.17133 38.3236C0.820259 38.2108 0.435514 38.3342 0.20359 38.6388C-0.0283349 38.9415 -0.0656496 39.3637 0.109885 39.7069C4.60012 48.4734 13.2041 53.9335 22.5966 54C22.7548 53.3474 22.9331 52.7054 23.1241 52.0682C23.0049 52.0701 22.8867 52.0778 22.7676 52.0778Z" fill="white"/>
<path d="M50 26.7138C50 14.5247 41.4968 3.55704 29.3208 0.0424299C28.9267 -0.0736093 28.4914 0.0532661 28.2307 0.363032C27.9679 0.672797 27.9258 1.10251 28.1239 1.45358C30.2549 5.21404 31.381 9.478 31.381 13.7852C31.381 15.5819 31.188 17.3362 30.8226 19.0306L32.6261 20.2883C33.1496 18.2006 33.4339 16.0244 33.4339 13.7852C33.4339 9.96969 32.6117 6.18366 31.0412 2.70544C41.1067 6.61635 47.9481 16.1729 47.9481 26.7138C47.9481 27.3018 47.8793 27.5231 47.8793 27.5231L49.9672 28C49.9661 28 50 27.1455 50 26.7138Z" fill="white"/>
</svg>
