<svg width="75" height="50" viewBox="0 0 75 50" fill="none" xmlns="http://www.w3.org/2000/svg">
<path d="M26.2798 17.6233C26.2798 12.6897 28.7227 7.24796 32.815 4.38225C33.1967 4.11463 33.6041 3.8572 34.0253 3.61676C36.3727 2.27779 39.0356 1.57092 41.7251 1.57092C49.737 1.57092 56.4991 7.75008 57.1188 15.6378L57.2168 16.388L57.9732 16.3617C66.3435 16.3651 73.4115 23.6224 73.4115 32.2127C73.4115 40.8047 66.3383 48.0646 57.9663 48.0646C54.4516 48.0646 51.4157 47.0876 48.9419 44.9126L48.7159 44.8395H47.9096L47.6105 44.9423C46.0822 46.1148 42.9001 48.4911 37.8477 48.4911C34.1379 48.4911 31.5816 47.2983 28.421 44.1734L27.8718 43.6152L27.3096 44.1369C24.5763 46.7154 21.0254 48.074 17.0432 48.074C8.52587 48.074 1.59707 41.2627 1.59707 32.8924C1.59707 30.5483 2.13771 28.2782 3.20269 26.1474C3.39265 25.7676 3.6015 25.3887 3.82585 25.0217C6.65548 20.3896 11.5403 17.6233 16.9864 17.6233C18.3119 17.6233 19.9699 17.7992 20.8295 18.1254V16.5001C19.9699 16.2053 18.3076 16.0524 16.9864 16.0524C10.979 16.0524 5.55701 19.1025 2.43684 24.2094C2.18929 24.6139 1.97269 25.0319 1.76296 25.4507C0.588813 27.8007 0 30.3036 0 32.8915C0 42.1276 7.64569 49.6432 17.0388 49.6432C21.1698 49.6432 24.8874 48.3093 27.8391 45.7783C31.0667 48.8063 33.929 50 37.8477 50C43.1201 50 46.5068 47.6381 48.2766 46.2949C50.9489 48.4835 54.2874 49.6364 57.9655 49.6364C67.1996 49.6364 75 41.6577 75 32.2136C75 22.9971 67.5709 15.1765 58.6307 14.8043C57.6087 6.44679 50.318 0 41.7234 0C38.7545 0 35.8174 0.779934 33.2293 2.25654C32.7643 2.52077 32.3156 2.80454 31.8936 3.10105C27.3818 6.26073 24.688 12.1825 24.688 17.6242C24.688 17.648 24.6905 17.6242 24.6905 17.648" fill="white"/>
</svg>
