<svg width="75" height="74" viewBox="0 0 75 74" fill="none" xmlns="http://www.w3.org/2000/svg">
<path d="M26.2854 17.6239C26.2854 12.6908 28.728 7.24861 32.8189 4.38317C33.2005 4.11575 33.608 3.85807 34.0299 3.61811C36.3767 2.27836 39.0389 1.57086 41.7288 1.57086C49.7393 1.57086 56.4995 7.75068 57.1202 15.6386L57.2179 16.3886L57.9747 16.3621C66.3427 16.3656 73.411 23.6231 73.411 32.2132C73.411 40.8051 66.3382 48.0643 57.9676 48.0643C54.4536 48.0643 51.418 47.0442 48.9448 44.8695L48.7182 44.7535H47.9129L47.6138 44.8996C46.0856 46.072 42.9058 48.4699 37.8538 48.4699C34.1428 48.4699 31.5881 47.2878 28.428 44.1629L27.8789 43.6103L27.3173 44.1345C24.5835 46.7131 21.0337 48.0732 17.0512 48.0732C8.53547 48.0732 1.60785 41.262 1.60785 32.8924C1.60785 30.5485 2.14797 28.2781 3.213 26.1467C3.4029 25.7677 3.6125 25.3887 3.83644 25.0221C6.66607 20.3901 11.4601 17.6239 16.9061 17.6239C18.2309 17.6239 19.7635 17.7992 20.6593 18.126V16.5002C19.7635 16.2044 18.2264 16.0521 16.9061 16.0521C10.8984 16.0521 5.52221 19.1018 2.40326 24.2093C2.15604 24.6139 1.96077 25.0319 1.75117 25.4507C0.576856 27.7999 0 30.3023 0 32.8906C0 42.1271 7.65049 49.6423 17.0423 49.6423C21.1725 49.6423 24.8925 48.3087 27.8431 45.7771C31.0695 48.8055 33.9332 50 37.8511 50C43.1225 50 46.5102 47.6375 48.2793 46.2942C50.9504 48.4823 54.2888 49.6361 57.9667 49.6361C67.199 49.6361 75 41.6578 75 32.2132C75 22.997 67.5726 15.1764 58.6331 14.8045C57.6102 6.44635 50.3216 0 41.7288 0C38.7603 0 35.8232 0.780119 33.2354 2.25623C32.7714 2.52099 32.3217 2.80434 31.8999 3.10098C27.3889 6.2604 24.6955 12.1817 24.6955 17.6239C24.6955 17.6478 24.6981 17.6239 24.6981 17.6478" fill="white"/>
<path d="M9.08995 67.2099C8.94095 67.2099 8.78895 67.1769 8.64695 67.1059C8.15195 66.8599 7.94995 66.2599 8.19495 65.7659L12.932 56.2139C13.178 55.7199 13.7769 55.5178 14.2719 55.7628C14.7669 56.0078 14.969 56.6079 14.724 57.1029L9.98695 66.6539C9.81195 67.0049 9.45795 67.2099 9.08995 67.2099Z" fill="white"/>
<path d="M25.1549 67.2099C25.0059 67.2099 24.8539 67.1769 24.7119 67.1059C24.2169 66.8599 24.0149 66.2599 24.2599 65.7659L28.9969 56.2139C29.2429 55.7199 29.8429 55.5178 30.3369 55.7628C30.8319 56.0078 31.0339 56.6079 30.7889 57.1029L26.0519 66.6539C25.8769 67.0049 25.5229 67.2099 25.1549 67.2099Z" fill="white"/>
<path d="M41.1549 67.2099C41.0059 67.2099 40.8539 67.1769 40.7119 67.1059C40.2169 66.8599 40.0149 66.2599 40.2599 65.7659L44.9969 56.2139C45.2419 55.7199 45.8429 55.5178 46.3369 55.7628C46.8319 56.0078 47.0339 56.6079 46.7889 57.1029L42.0519 66.6539C41.8769 67.0049 41.5229 67.2099 41.1549 67.2099Z" fill="white"/>
<path d="M13.8072 73.9848C13.6582 73.9848 13.5072 73.9518 13.3642 73.8808C12.8692 73.6348 12.6672 73.0358 12.9122 72.5408L18.6482 60.9888C18.8942 60.4938 19.4932 60.2928 19.9892 60.5368C20.4832 60.7828 20.6852 61.3818 20.4402 61.8778L14.7042 73.4288C14.5292 73.7808 14.1752 73.9848 13.8072 73.9848Z" fill="white"/>
<path d="M45.9591 73.9848C45.8101 73.9848 45.6591 73.9518 45.5161 73.8808C45.0211 73.6348 44.8191 73.0348 45.0641 72.5408L50.8011 60.9888C51.0461 60.4938 51.6461 60.2928 52.1411 60.5368C52.6361 60.7828 52.8381 61.3828 52.5931 61.8778L46.8561 73.4288C46.6811 73.7808 46.3271 73.9848 45.9591 73.9848Z" fill="white"/>
<path d="M29.8829 73.9848C29.7339 73.9848 29.5829 73.9518 29.4399 73.8808C28.9449 73.6348 28.7429 73.0348 28.9879 72.5408L34.7249 60.9888C34.9709 60.4938 35.5699 60.2928 36.0649 60.5368C36.5599 60.7828 36.7619 61.3828 36.5169 61.8778L30.7799 73.4288C30.6049 73.7808 30.2509 73.9848 29.8829 73.9848Z" fill="white"/>
<path d="M57.1549 67.2099C57.0059 67.2099 56.8539 67.1769 56.7119 67.1059C56.2169 66.8599 56.0149 66.2599 56.2599 65.7659L60.9969 56.2139C61.2429 55.7199 61.8419 55.5178 62.3369 55.7628C62.8319 56.0078 63.0339 56.6079 62.7889 57.1029L58.0519 66.6539C57.8769 67.0049 57.5229 67.2099 57.1549 67.2099Z" fill="white"/>
</svg>
