<svg width="105" height="87" viewBox="0 0 105 87" fill="none" xmlns="http://www.w3.org/2000/svg">
<path d="M41.6964 7.13912C32.5694 -1.98788 17.9674 -2.35888 8.37939 5.99912L9.4614 7.08112C13.7474 3.37912 19.0754 1.50211 24.4184 1.50211C30.2884 1.50211 36.1594 3.73712 40.6294 8.20612C42.2524 9.83012 43.5774 11.6391 44.6104 13.5651L45.6764 12.3781C44.6154 10.5031 43.2924 8.73612 41.6964 7.13912Z" fill="white"/>
<path d="M8.20666 40.6301C-0.312345 32.1111 -0.684349 18.5171 7.03465 9.51906L5.95065 8.43506C-2.35835 18.0241 -1.96935 32.5881 7.13965 41.6971C9.38865 43.9461 11.9737 45.658 14.7317 46.845L15.7947 45.6611C13.0317 44.5441 10.4437 42.8671 8.20666 40.6301Z" fill="white"/>
<path d="M45.2854 31.6239C45.2854 26.6908 47.728 21.2486 51.8189 18.3832C52.2005 18.1157 52.608 17.8581 53.0299 17.6181C55.3767 16.2784 58.0389 15.5709 60.7288 15.5709C68.7393 15.5709 75.4995 21.7507 76.1202 29.6386L76.2179 30.3886L76.9747 30.3621C85.3427 30.3656 92.411 37.6231 92.411 46.2132C92.411 54.8051 85.3382 62.0643 76.9676 62.0643C73.4536 62.0643 70.418 61.0442 67.9448 58.8695L67.7182 58.7535H66.9129L66.6138 58.8996C65.0856 60.072 61.9058 62.4699 56.8538 62.4699C53.1428 62.4699 50.5881 61.2878 47.428 58.1629L46.8789 57.6103L46.3173 58.1345C43.5835 60.7131 40.0337 62.0732 36.0512 62.0732C27.5355 62.0732 20.6078 55.262 20.6078 46.8924C20.6078 44.5485 21.148 42.2781 22.213 40.1467C22.4029 39.7677 22.6125 39.3887 22.8364 39.0221C25.6661 34.3901 30.4601 31.6239 35.9061 31.6239C37.2309 31.6239 38.7635 31.7992 39.6593 32.126V30.5002C38.7635 30.2044 37.2264 30.0521 35.9061 30.0521C29.8984 30.0521 24.5222 33.1018 21.4033 38.2093C21.156 38.6139 20.9608 39.0319 20.7512 39.4507C19.5769 41.7999 19 44.3023 19 46.8906C19 56.1271 26.6505 63.6423 36.0423 63.6423C40.1725 63.6423 43.8925 62.3087 46.8431 59.7771C50.0695 62.8055 52.9332 64 56.8511 64C62.1225 64 65.5102 61.6375 67.2793 60.2942C69.9504 62.4823 73.2888 63.6361 76.9667 63.6361C86.199 63.6361 94 55.6578 94 46.2132C94 36.997 86.5726 29.1764 77.6331 28.8045C76.6102 20.4464 69.3216 14 60.7288 14C57.7603 14 54.8232 14.7801 52.2354 16.2562C51.7714 16.521 51.3217 16.8043 50.8999 17.101C46.3889 20.2604 43.6955 26.1817 43.6955 31.6239C43.6955 31.6478 43.6981 31.6239 43.6981 31.6478" fill="white"/>
<path d="M35.4913 79.4911C35.3423 79.4911 35.1903 79.4581 35.0483 79.3871C34.5533 79.1411 34.3513 78.5411 34.5963 78.0471L39.3333 68.4951C39.5793 68.0011 40.1783 67.7991 40.6733 68.0441C41.1683 68.2891 41.3703 68.8891 41.1253 69.3841L36.3883 78.9351C36.2133 79.2861 35.8593 79.4911 35.4913 79.4911Z" fill="white"/>
<path d="M51.5563 79.4911C51.4073 79.4911 51.2553 79.4581 51.1133 79.3871C50.6183 79.1411 50.4163 78.5411 50.6613 78.0471L55.3983 68.4951C55.6443 68.0011 56.2443 67.7991 56.7383 68.0441C57.2333 68.2891 57.4353 68.8891 57.1903 69.3841L52.4533 78.9351C52.2783 79.2861 51.9243 79.4911 51.5563 79.4911Z" fill="white"/>
<path d="M67.5563 79.4911C67.4073 79.4911 67.2553 79.4581 67.1133 79.3871C66.6183 79.1411 66.4163 78.5411 66.6613 78.0471L71.3983 68.4951C71.6433 68.0011 72.2443 67.7991 72.7383 68.0441C73.2333 68.2891 73.4353 68.8891 73.1903 69.3841L68.4533 78.9351C68.2783 79.2861 67.9243 79.4911 67.5563 79.4911Z" fill="white"/>
<path d="M40.2086 86.266C40.0596 86.266 39.9086 86.233 39.7656 86.162C39.2706 85.916 39.0686 85.317 39.3136 84.822L45.0496 73.27C45.2956 72.775 45.8946 72.574 46.3906 72.818C46.8846 73.064 47.0866 73.6631 46.8416 74.1591L41.1056 85.71C40.9306 86.062 40.5766 86.266 40.2086 86.266Z" fill="white"/>
<path d="M72.3605 86.266C72.2115 86.266 72.0605 86.233 71.9175 86.162C71.4225 85.916 71.2205 85.316 71.4655 84.822L77.2025 73.27C77.4475 72.775 78.0475 72.574 78.5425 72.818C79.0375 73.064 79.2395 73.6641 78.9945 74.1591L73.2575 85.71C73.0825 86.062 72.7285 86.266 72.3605 86.266Z" fill="white"/>
<path d="M56.2843 86.266C56.1353 86.266 55.9843 86.233 55.8413 86.162C55.3463 85.916 55.1443 85.316 55.3893 84.822L61.1263 73.27C61.3723 72.775 61.9713 72.574 62.4663 72.818C62.9613 73.064 63.1633 73.6641 62.9183 74.1591L57.1813 85.71C57.0063 86.062 56.6523 86.266 56.2843 86.266Z" fill="white"/>
<path d="M83.5563 79.4911C83.4073 79.4911 83.2553 79.4581 83.1133 79.3871C82.6183 79.1411 82.4163 78.5411 82.6613 78.0471L87.3983 68.4951C87.6443 68.0011 88.2433 67.7991 88.7383 68.0441C89.2333 68.2891 89.4353 68.8891 89.1903 69.3841L84.4533 78.9351C84.2783 79.2861 83.9243 79.4911 83.5563 79.4911Z" fill="white"/>
</svg>
