<svg width="106" height="89" viewBox="0 0 106 89" fill="none" xmlns="http://www.w3.org/2000/svg">
<path d="M56.6868 31.9051C56.6868 26.9721 59.1294 21.5299 63.2202 18.6644C63.6018 18.397 64.0094 18.1393 64.4313 17.8994C66.7781 16.5596 69.4402 15.8521 72.1301 15.8521C80.1407 15.8521 86.9008 22.0319 87.5216 29.9199L87.6192 30.6699L88.3761 30.6433C96.7441 30.6469 103.812 37.9043 103.812 46.4944C103.812 55.0863 96.7396 62.3456 88.3689 62.3456C84.855 62.3456 81.8193 61.3255 79.3462 59.1507L79.1196 59.0347H78.3143L78.0151 59.1808C76.487 60.3532 73.3071 62.7511 68.2552 62.7511C64.5441 62.7511 61.9895 61.569 58.8294 58.4441L58.2803 57.8916L57.7186 58.4158C54.9849 60.9943 51.435 62.3544 47.4526 62.3544C38.9368 62.3544 32.0092 55.5433 32.0092 47.1736C32.0092 44.8297 32.5493 42.5593 33.6144 40.428C33.8043 40.049 34.0139 39.67 34.2378 39.3034C37.0674 34.6714 41.8614 31.9051 47.3075 31.9051C48.6323 31.9051 50.1649 32.0805 51.0606 32.4072V30.7815C50.1649 30.4857 48.6278 30.3334 47.3075 30.3334C41.2998 30.3334 35.9236 33.383 32.8046 38.4905C32.5574 38.8952 32.3621 39.3131 32.1525 39.732C30.9782 42.0812 30.4014 44.5836 30.4014 47.1718C30.4014 56.4084 38.0519 63.9235 47.4436 63.9235C51.5739 63.9235 55.2939 62.59 58.2444 60.0584C61.4709 63.0867 64.3346 64.2813 68.2525 64.2813C73.5239 64.2813 76.9116 61.9188 78.6807 60.5755C81.3517 62.7635 84.6902 63.9173 88.3681 63.9173C97.6004 63.9173 105.401 55.9391 105.401 46.4944C105.401 37.2783 97.9739 29.4576 89.0345 29.0857C88.0115 20.7276 80.7229 14.2812 72.1301 14.2812C69.1617 14.2812 66.2246 15.0614 63.6368 16.5375C63.1728 16.8022 62.7231 17.0856 62.3012 17.3822C57.7903 20.5417 55.0968 26.4629 55.0968 31.9051C55.0968 31.929 55.0995 31.9051 55.0995 31.929" fill="white"/>
<path d="M37.9991 81.5512C37.8501 81.5512 37.6981 81.5182 37.5561 81.4472C37.0611 81.2012 36.8591 80.6012 37.1041 80.1072L41.8411 70.5552C42.0871 70.0612 42.6861 69.8592 43.1811 70.1042C43.6761 70.3492 43.8781 70.9492 43.6331 71.4442L38.8961 80.9952C38.7211 81.3462 38.3671 81.5512 37.9991 81.5512Z" fill="white"/>
<path d="M54.0641 81.5512C53.9151 81.5512 53.7631 81.5182 53.6211 81.4472C53.1261 81.2012 52.9241 80.6012 53.1691 80.1072L57.9061 70.5552C58.1521 70.0612 58.7521 69.8592 59.2461 70.1042C59.7411 70.3492 59.9431 70.9492 59.6981 71.4442L54.9611 80.9952C54.7861 81.3462 54.4321 81.5512 54.0641 81.5512Z" fill="white"/>
<path d="M70.0641 81.5512C69.9151 81.5512 69.7631 81.5182 69.6211 81.4472C69.1261 81.2012 68.9241 80.6012 69.1691 80.1072L73.9061 70.5552C74.1511 70.0612 74.7521 69.8592 75.2461 70.1042C75.7411 70.3492 75.9431 70.9492 75.6981 71.4442L70.9611 80.9952C70.7861 81.3462 70.4321 81.5512 70.0641 81.5512Z" fill="white"/>
<path d="M42.7164 88.3261C42.5674 88.3261 42.4164 88.2931 42.2734 88.2221C41.7784 87.9761 41.5764 87.3771 41.8214 86.8821L47.5574 75.3301C47.8034 74.8351 48.4024 74.6341 48.8984 74.8781C49.3924 75.1241 49.5944 75.7231 49.3494 76.2191L43.6134 87.7701C43.4384 88.1221 43.0844 88.3261 42.7164 88.3261Z" fill="white"/>
<path d="M74.8683 88.3261C74.7193 88.3261 74.5683 88.2931 74.4253 88.2221C73.9303 87.9761 73.7283 87.3761 73.9733 86.8821L79.7103 75.3301C79.9553 74.8351 80.5553 74.6341 81.0503 74.8781C81.5453 75.1241 81.7473 75.7241 81.5023 76.2191L75.7653 87.7701C75.5903 88.1221 75.2363 88.3261 74.8683 88.3261Z" fill="white"/>
<path d="M58.7921 88.3261C58.6431 88.3261 58.4921 88.2931 58.3491 88.2221C57.8541 87.9761 57.6521 87.3761 57.8971 86.8821L63.6341 75.3301C63.8801 74.8351 64.4791 74.6341 64.9741 74.8781C65.4691 75.1241 65.6711 75.7241 65.4261 76.2191L59.6891 87.7701C59.5141 88.1221 59.1601 88.3261 58.7921 88.3261Z" fill="white"/>
<path d="M86.0641 81.5512C85.9151 81.5512 85.7631 81.5182 85.6211 81.4472C85.1261 81.2012 84.9241 80.6012 85.1691 80.1072L89.9061 70.5552C90.1521 70.0612 90.7511 69.8592 91.2461 70.1042C91.7411 70.3492 91.9431 70.9492 91.6981 71.4442L86.9611 80.9952C86.7861 81.3462 86.4321 81.5512 86.0641 81.5512Z" fill="white"/>
<path d="M25.0329 53.4921C16.1669 53.4921 7.96883 49.0481 3.10983 41.7491C5.00883 42.1451 6.94585 42.3451 8.89285 42.3451C20.7929 42.3451 30.9969 34.9641 35.1839 24.5441L33.5138 23.3281C29.7448 33.2621 20.1319 40.3451 8.89285 40.3451C6.31485 40.3451 3.75487 39.9681 1.28787 39.2241C0.901872 39.1071 0.478846 39.2351 0.223846 39.5511C-0.0311541 39.8651 -0.0721815 40.3031 0.120819 40.6591C5.05782 49.7531 14.5178 55.4171 24.8448 55.4861C25.0188 54.8091 25.2148 54.1431 25.4248 53.4821C25.2938 53.4841 25.1639 53.4921 25.0329 53.4921Z" fill="white"/>
<path d="M53.36 27.1652C53.36 14.7702 45.076 3.61715 33.214 0.0431469C32.83 -0.0748531 32.406 0.0541662 32.152 0.369166C31.896 0.684166 31.855 1.12114 32.048 1.47814C34.124 5.30214 35.221 9.63815 35.221 14.0182C35.221 15.8452 35.033 17.6292 34.677 19.3522L36.434 20.6312C36.944 18.5082 37.221 16.2952 37.221 14.0182C37.221 10.1382 36.42 6.28815 34.89 2.75115C44.696 6.72815 51.361 16.4462 51.361 27.1652C51.361 27.7632 51.294 27.9882 51.294 27.9882L53.328 28.4731C53.327 28.4731 53.36 27.6042 53.36 27.1652Z" fill="white"/>
</svg>
