<svg width="84" height="79" viewBox="0 0 84 79" fill="none" xmlns="http://www.w3.org/2000/svg">
<path d="M45.8491 39.036L32.9291 59.67C32.8001 59.859 32.9401 60.114 33.1691 60.105L42.7501 59.683C42.9531 59.674 43.0971 59.879 43.0201 60.067L36.9281 77.093C36.8011 77.4 37.2211 77.63 37.4121 77.358L51.4281 55.166C51.5581 54.982 51.4261 54.729 51.2011 54.729H42.1161C41.9321 54.729 41.8001 54.556 41.8481 54.38L46.3451 39.266C46.4261 38.963 46.0261 38.78 45.8491 39.036Z" stroke="white" stroke-width="2" stroke-miterlimit="10"/>
<path d="M65.4583 16.719C64.3163 7.27999 56.1793 0 46.5863 0C43.2723 0 39.9933 0.880981 37.1043 2.54898C36.5853 2.84698 36.0833 3.16798 35.6133 3.50198C30.5773 7.06998 27.5703 13.757 27.5703 19.903C27.5703 19.931 27.5723 19.903 27.5733 19.931L29.3453 19.903C29.3453 14.332 32.0723 8.18598 36.6393 4.94998C37.0653 4.64798 37.5193 4.357 37.9913 4.086C40.6103 2.574 43.5833 1.77499 46.5863 1.77499C55.5293 1.77499 63.0763 8.75298 63.7683 17.661L63.8773 18.508L64.7223 18.478C74.0653 18.482 81.9553 26.678 81.9553 36.379C81.9553 46.083 74.0603 54.279 64.7153 54.279C60.7923 54.279 57.8763 53.208 55.3343 51.333L55.0643 51.541L54.0643 52.406C57.0193 54.792 60.6823 56.054 64.7143 56.054C75.0213 56.054 83.7303 47.044 83.7303 36.378C83.7303 25.971 75.4383 17.139 65.4583 16.719Z" fill="white"/>
<path d="M30.497 49.8419C27.446 52.7539 23.482 54.2899 19.036 54.2899C9.52901 54.2899 1.79501 46.5979 1.79501 37.1469C1.79501 34.4999 2.39801 31.9359 3.58701 29.5279C3.79901 29.0989 4.03302 28.6719 4.28302 28.2579C7.44202 23.0259 12.795 19.9029 18.874 19.9029C20.353 19.9029 22.064 20.1009 23.064 20.4699V18.6339C22.064 18.2999 20.349 18.1279 18.874 18.1279C12.168 18.1279 6.16601 21.5719 2.68301 27.3399C2.40701 27.7969 2.18902 28.2689 1.95602 28.7419C0.645024 31.3949 0 34.2219 0 37.1439C0 47.5749 8.541 56.0619 19.026 56.0619C23.628 56.0619 27.773 54.5599 31.064 51.7119L30.497 49.8419Z" fill="white"/>
</svg>
