<svg width="84" height="79" viewBox="0 0 84 79" fill="none" xmlns="http://www.w3.org/2000/svg">
<path d="M26.2836 17.6232C26.2836 12.6903 28.7263 7.24832 32.8171 4.38297C33.1987 4.11557 33.6062 3.85794 34.029 3.61798C36.375 2.27828 39.038 1.57079 41.7279 1.57079C49.7376 1.57079 56.4977 7.75037 57.1193 15.638L57.217 16.3881L57.9738 16.3615C66.3418 16.365 73.4101 23.6222 73.4101 32.212C73.4101 40.8036 66.3373 48.0626 57.9667 48.0626C54.4527 48.0626 51.4171 47.0435 48.9439 44.8679L48.7173 44.7519H47.9111L47.612 44.898C46.0847 46.0704 42.904 48.4682 37.852 48.4682C34.1419 48.4682 31.5864 47.2861 28.4262 44.1613L27.878 43.6088L27.3164 44.133C24.5817 46.7114 21.0319 48.0724 17.0503 48.0724C8.53368 48.0724 1.60696 41.2606 1.60696 32.8912C1.60696 30.5474 2.14708 28.2771 3.21211 26.1458C3.402 25.7668 3.61072 25.3878 3.83465 25.0213C6.66428 20.3894 11.4592 17.6232 16.9052 17.6232C18.23 17.6232 19.7626 17.7986 20.6584 18.1253V16.4996C19.7626 16.2039 18.2256 16.0516 16.9052 16.0516C10.8975 16.0516 5.52132 19.1011 2.40237 24.2084C2.15515 24.613 1.95989 25.031 1.75118 25.4498C0.575974 27.7989 0 30.3012 0 32.8894C0 42.1256 7.6505 49.6414 17.0414 49.6414C21.1716 49.6414 24.8925 48.3079 27.8431 45.7764C31.0695 48.8047 33.9332 50 37.8511 50C43.1225 50 46.5102 47.6376 48.2793 46.2935C50.9504 48.4815 54.2888 49.6343 57.9667 49.6343C67.199 49.6343 75 41.6563 75 32.212C75 22.9962 67.5726 15.1759 58.634 14.804C57.6102 6.44613 50.3225 0 41.7297 0C38.7612 0 35.8241 0.780065 33.2363 2.25612C32.7714 2.52088 32.3227 2.8042 31.9008 3.10083C27.3907 6.26015 24.6964 12.1812 24.6964 17.6232C24.6964 17.6471 24.699 17.6233 24.699 17.6472" fill="white"/>
<path d="M24.4969 60.988C25.3221 60.988 25.9909 60.3191 25.9909 59.494C25.9909 58.6689 25.3221 58 24.4969 58C23.6718 58 23.0029 58.6689 23.0029 59.494C23.0029 60.3191 23.6718 60.988 24.4969 60.988Z" fill="white"/>
<path d="M40.4979 60.988C41.323 60.988 41.9919 60.3191 41.9919 59.494C41.9919 58.6689 41.323 58 40.4979 58C39.6728 58 39.0039 58.6689 39.0039 59.494C39.0039 60.3191 39.6728 60.988 40.4979 60.988Z" fill="white"/>
<path d="M56.4994 60.988C57.3245 60.988 57.9933 60.3191 57.9933 59.494C57.9933 58.6689 57.3245 58 56.4994 58C55.6742 58 55.0054 58.6689 55.0054 59.494C55.0054 60.3191 55.6742 60.988 56.4994 60.988Z" fill="white"/>
<path d="M31.4969 66.989C32.3221 66.989 32.9909 66.32 32.9909 65.4949C32.9909 64.6698 32.3221 64.001 31.4969 64.001C30.6718 64.001 30.0029 64.6698 30.0029 65.4949C30.0029 66.32 30.6718 66.989 31.4969 66.989Z" fill="white"/>
<path d="M46.4979 66.989C47.323 66.989 47.9919 66.32 47.9919 65.4949C47.9919 64.6698 47.323 64.001 46.4979 64.001C45.6728 64.001 45.0039 64.6698 45.0039 65.4949C45.0039 66.32 45.6728 66.989 46.4979 66.989Z" fill="white"/>
<path d="M21.496 71.9899C22.3211 71.9899 22.99 71.3211 22.99 70.496C22.99 69.6709 22.3211 69.002 21.496 69.002C20.6709 69.002 20.002 69.6709 20.002 70.496C20.002 71.3211 20.6709 71.9899 21.496 71.9899Z" fill="white"/>
<path d="M37.4969 71.9899C38.3221 71.9899 38.9909 71.3211 38.9909 70.496C38.9909 69.6709 38.3221 69.002 37.4969 69.002C36.6718 69.002 36.0029 69.6709 36.0029 70.496C36.0029 71.3211 36.6718 71.9899 37.4969 71.9899Z" fill="white"/>
<path d="M16.494 66.989C17.3191 66.989 17.988 66.32 17.988 65.4949C17.988 64.6698 17.3191 64.001 16.494 64.001C15.6689 64.001 15 64.6698 15 65.4949C15 66.32 15.6689 66.989 16.494 66.989Z" fill="white"/>
</svg>
