<svg width="67" height="34" viewBox="0 0 67 34" fill="none" xmlns="http://www.w3.org/2000/svg">
<path d="M51.978 17.2569H0.856018C0.385018 17.2569 0 16.8719 0 16.4009C0 15.9299 0.385018 15.5449 0.856018 15.5449H51.978C52.449 15.5449 52.833 15.9299 52.833 16.4009C52.834 16.8729 52.449 17.2569 51.978 17.2569Z" fill="white"/>
<path d="M57.978 25.2892H10.856C10.385 25.2892 10 24.9042 10 24.4332C10 23.9622 10.385 23.5771 10.856 23.5771H57.978C58.449 23.5771 58.833 23.9622 58.833 24.4332C58.833 24.9042 58.449 25.2892 57.978 25.2892Z" fill="white"/>
<path d="M37.5219 33.3199H22.4009C21.9299 33.3199 21.5449 32.9349 21.5449 32.4639C21.5449 31.9929 21.9299 31.6079 22.4009 31.6079H37.5219C37.9939 31.6079 38.3789 31.9929 38.3789 32.4639C38.3789 32.9349 37.9939 33.3199 37.5219 33.3199Z" fill="white"/>
<path d="M12.8169 1.71199H56.9388C57.4098 1.71199 57.7949 1.32699 57.7949 0.855988C57.7949 0.384988 57.4098 0 56.9388 0H12.8169V1.71199Z" fill="white"/>
<path d="M1.00787 1.71199H9.12885V0H1.00787C0.536874 0 0.150879 0.384988 0.150879 0.855988C0.151879 1.32599 0.536874 1.71199 1.00787 1.71199Z" fill="white"/>
<path d="M10.273 9.74277H65.394C65.865 9.74277 66.249 9.35776 66.249 8.88676C66.249 8.41576 65.864 8.03076 65.394 8.03076H10.273C9.80201 8.03076 9.41699 8.41576 9.41699 8.88676C9.41699 9.35776 9.80201 9.74277 10.273 9.74277Z" fill="white"/>
</svg>
